<svg data-v-423bf9ae="" xmlns="http://www.w3.org/2000/svg" viewBox="0 0 471 90" class="iconLeft"><g data-v-423bf9ae="" id="18457203-a9e0-4aa6-827d-38e7fe220fde" fill="#CECFD0" transform="matrix(6.08519290965367,0,0,6.08519290965367,105.19774537180933,-8.853955239594285)"><path d="M11.31 3.92L8.90 3.92L6.36 12.21L3.81 3.92L1.33 3.92L1.33 13.58L2.87 13.58L2.87 8.83C2.87 7.73 2.87 6.43 2.84 5.39C3.11 6.41 3.51 7.73 3.86 8.81L5.43 13.58L7.21 13.58L8.76 8.82C9.13 7.73 9.53 6.40 9.81 5.38C9.79 6.40 9.79 7.73 9.79 8.83L9.79 13.58L11.31 13.58ZM16.49 5.95C13.99 5.95 12.73 7.69 12.73 9.86C12.73 12.03 13.99 13.78 16.49 13.78C18.98 13.78 20.26 12.03 20.26 9.86C20.26 7.69 18.98 5.95 16.49 5.95ZM16.49 12.66C15.13 12.66 14.35 11.54 14.35 9.86C14.35 8.18 15.13 7.07 16.49 7.07C17.84 7.07 18.62 8.18 18.62 9.86C18.62 11.54 17.84 12.66 16.49 12.66ZM28.18 8.08C28.04 6.78 27.13 5.95 25.54 5.95C24.79 5.95 24.25 6.08 23.66 6.52L23.16 7.38L23.16 6.15L21.62 6.15L21.62 13.58L23.16 13.58L23.16 10.25C23.16 7.92 24.02 7.08 25.09 7.08C26.14 7.08 26.59 7.67 26.66 8.51C26.68 8.89 26.68 9.21 26.68 9.56L26.68 13.58L28.22 13.58L28.22 9.39C28.22 8.79 28.21 8.46 28.18 8.08ZM32.49 5.95C30.84 5.95 29.75 6.79 29.75 8.18C29.75 9.48 30.76 10.05 32.12 10.40C33.38 10.74 33.88 11.09 33.88 11.73C33.88 12.38 33.31 12.68 32.59 12.68C31.82 12.68 31.19 12.31 31.01 11.35L29.46 11.35C29.67 13.03 30.88 13.78 32.54 13.78C34.16 13.78 35.43 13.06 35.43 11.62C35.43 10.30 34.58 9.66 32.96 9.24C31.85 8.95 31.30 8.67 31.30 7.99C31.30 7.43 31.65 7.03 32.38 7.03C33.14 7.03 33.60 7.49 33.75 8.27L35.32 8.27C35.15 6.92 34.20 5.95 32.49 5.95ZM39.97 5.95C37.46 5.95 36.20 7.69 36.20 9.86C36.20 12.03 37.46 13.78 39.97 13.78C42.46 13.78 43.74 12.03 43.74 9.86C43.74 7.69 42.46 5.95 39.97 5.95ZM39.97 12.66C38.61 12.66 37.83 11.54 37.83 9.86C37.83 8.18 38.61 7.07 39.97 7.07C41.31 7.07 42.10 8.18 42.10 9.86C42.10 11.54 41.31 12.66 39.97 12.66ZM48.30 5.95C45.79 5.95 44.53 7.69 44.53 9.86C44.53 12.03 45.79 13.78 48.30 13.78C50.79 13.78 52.07 12.03 52.07 9.86C52.07 7.69 50.79 5.95 48.30 5.95ZM48.30 12.66C46.94 12.66 46.16 11.54 46.16 9.86C46.16 8.18 46.94 7.07 48.30 7.07C49.64 7.07 50.43 8.18 50.43 9.86C50.43 11.54 49.64 12.66 48.30 12.66ZM59.99 8.08C59.85 6.78 58.94 5.95 57.34 5.95C56.60 5.95 56.06 6.08 55.47 6.52L54.96 7.38L54.96 6.15L53.42 6.15L53.42 13.58L54.96 13.58L54.96 10.25C54.96 7.92 55.83 7.08 56.90 7.08C57.95 7.08 58.39 7.67 58.46 8.51C58.49 8.89 58.49 9.21 58.49 9.56L58.49 13.58L60.03 13.58L60.03 9.39C60.03 8.79 60.02 8.46 59.99 8.08Z"></path></g><g data-v-423bf9ae="" id="e279d96d-4339-4f9f-bb72-114413c6dcdf" transform="matrix(1.3432835820895523,0,0,1.3432835820895523,-19.794774069714904,-22.83582089552239)" stroke="none" fill="#CECFD0"><path d="M71.162 17c-7.18 0-13 5.82-13 13s5.82 13 13 13 13-5.82 13-13-5.82-13-13-13m2.117 21.825a9 9 0 0 1-2.019.234 9.06 9.06 0 0 1 0-18.118c.695 0 1.369.086 2.019.234-4.029.919-7.039 4.517-7.039 8.825s3.01 7.906 7.039 8.825M28.45 58c-7.18 0-13 5.82-13 13s5.82 13 13 13 13-5.82 13-13-5.82-13-13-13m4.627 20.837a9 9 0 0 1-4.529 1.222 9.06 9.06 0 0 1 0-18.118c1.652 0 3.196.449 4.529 1.222-2.705 1.567-4.529 4.486-4.529 7.837s1.824 6.27 4.529 7.837M71.45 58c-7.18 0-13 5.82-13 13s5.82 13 13 13 13-5.82 13-13-5.82-13-13-13m0 22.059a9.06 9.06 0 1 1 0-18.118 9.06 9.06 0 0 1 0 18.118"></path></g></svg>